<svg width="26" height="26" viewBox="0 0 26 26" fill="none" xmlns="http://www.w3.org/2000/svg">
<path d="M25.3925 13.2432C25.3925 12.178 25.3061 11.4007 25.119 10.5946H12.9554V15.4024H20.0951C19.9512 16.5972 19.1739 18.3966 17.4465 19.6057L17.4223 19.7666L21.2682 22.746L21.5347 22.7726C23.9817 20.5126 25.3925 17.1874 25.3925 13.2432Z" fill="#4285F4"/>
<path d="M12.9554 25.9107C16.4532 25.9107 19.3898 24.759 21.5347 22.7726L17.4465 19.6057C16.3525 20.3686 14.8842 20.9012 12.9554 20.9012C9.52941 20.9012 6.62167 18.6413 5.58514 15.5176L5.43321 15.5305L1.43417 18.6254L1.38187 18.7708C3.51229 23.0028 7.88833 25.9107 12.9554 25.9107Z" fill="#34A853"/>
<path d="M5.58514 15.5176C5.31164 14.7115 5.15336 13.8478 5.15336 12.9553C5.15336 12.0628 5.31164 11.1992 5.57075 10.3931L5.5635 10.2214L1.51435 7.07677L1.38187 7.13978C0.503825 8.89597 0 10.8681 0 12.9553C0 15.0426 0.503825 17.0146 1.38187 18.7708L5.58514 15.5176Z" fill="#FBBC05"/>
<path d="M12.9554 5.00937C15.388 5.00937 17.029 6.06018 17.9647 6.93833L21.621 3.36839C19.3755 1.28114 16.4533 0 12.9554 0C7.88833 0 3.51229 2.90773 1.38187 7.13978L5.57076 10.3931C6.62167 7.26938 9.52941 5.00937 12.9554 5.00937Z" fill="#EB4335"/>
</svg>
